<svg width="16" height="16" viewBox="0 0 16 16" fill="#677685" xmlns="http://www.w3.org/2000/svg">
<g id="bold/dateandtime/clock">
<path id="Ellipse 134 (Stroke)" fill-rule="evenodd" clip-rule="evenodd" d="M8.00016 13.334C10.9457 13.334 13.3335 10.9462 13.3335 8.00065C13.3335 5.05513 10.9457 2.66732 8.00016 2.66732C5.05464 2.66732 2.66683 5.05513 2.66683 8.00065C2.66683 10.9462 5.05464 13.334 8.00016 13.334ZM8.00016 14.6673C11.6821 14.6673 14.6668 11.6825 14.6668 8.00065C14.6668 4.31875 11.6821 1.33398 8.00016 1.33398C4.31826 1.33398 1.3335 4.31875 1.3335 8.00065C1.3335 11.6825 4.31826 14.6673 8.00016 14.6673Z"/>
<path id="Vector 479 (Stroke)" fill-rule="evenodd" clip-rule="evenodd" d="M7.3335 4H8.66683V7.72386L10.4716 9.5286L9.52876 10.4714L7.3335 8.27614V4Z"/>
</g>
</svg>
