<svg width="16" height="16" viewBox="0 0 16 16" fill="#677685" xmlns="http://www.w3.org/2000/svg">
<path fill-rule="evenodd" clip-rule="evenodd" d="M2 4.33333C2 3.04467 3.04467 2 4.33333 2C5.622 2 6.66667 3.04467 6.66667 4.33333V5.33333H9.33333V4.33333C9.33333 3.04467 10.378 2 11.6667 2C12.9553 2 14 3.04467 14 4.33333C14 5.622 12.9553 6.66667 11.6667 6.66667H10.6667V9.33333H11.6667C12.9553 9.33333 14 10.378 14 11.6667C14 12.9553 12.9553 14 11.6667 14C10.378 14 9.33333 12.9553 9.33333 11.6667V10.6667H6.66667V11.6667C6.66667 12.9553 5.622 14 4.33333 14C3.04467 14 2 12.9553 2 11.6667C2 10.378 3.04467 9.33333 4.33333 9.33333H5.33333V6.66667H4.33333C3.04467 6.66667 2 5.622 2 4.33333ZM5.33333 5.33333V4.33333C5.33333 3.78105 4.88562 3.33333 4.33333 3.33333C3.78105 3.33333 3.33333 3.78105 3.33333 4.33333C3.33333 4.88562 3.78105 5.33333 4.33333 5.33333H5.33333ZM6.66667 6.66667V9.33333H9.33333V6.66667H6.66667ZM5.33333 10.6667H4.33333C3.78105 10.6667 3.33333 11.1144 3.33333 11.6667C3.33333 12.219 3.78105 12.6667 4.33333 12.6667C4.88562 12.6667 5.33333 12.219 5.33333 11.6667V10.6667ZM10.6667 10.6667V11.6667C10.6667 12.219 11.1144 12.6667 11.6667 12.6667C12.219 12.6667 12.6667 12.219 12.6667 11.6667C12.6667 11.1144 12.219 10.6667 11.6667 10.6667H10.6667ZM10.6667 5.33333H11.6667C12.219 5.33333 12.6667 4.88562 12.6667 4.33333C12.6667 3.78105 12.219 3.33333 11.6667 3.33333C11.1144 3.33333 10.6667 3.78105 10.6667 4.33333V5.33333Z"/>
</svg>
