<svg xmlns="http://www.w3.org/2000/svg" version="1.1" xmlns:xlink="http://www.w3.org/1999/xlink" xmlns:svgjs="http://svgjs.dev/svgjs" width="2000" height="1247" viewBox="0 0 2000 1247"><g transform="matrix(1,0,0,1,-1.2121212121212466,0.504858299595071)"><svg viewBox="0 0 396 247" data-background-color="#ffffff" preserveAspectRatio="xMidYMid meet" height="1247" width="2000" xmlns="http://www.w3.org/2000/svg" xmlns:xlink="http://www.w3.org/1999/xlink"><g id="tight-bounds" transform="matrix(1,0,0,1,0.2400000000000091,-0.09999999999999432)"><svg viewBox="0 0 395.52 247.2" height="247.2" width="395.52"><g><svg></svg></g><g><svg viewBox="0 0 395.52 247.2" height="247.2" width="395.52"><g transform="matrix(1,0,0,1,75.54432000000001,94.01013683223992)"><svg viewBox="0 0 244.43135999999996 59.17972633552014" height="59.17972633552014" width="244.43135999999996"><g><svg viewBox="0 0 244.43135999999996 59.17972633552014" height="59.17972633552014" width="244.43135999999996"><g><svg viewBox="0 0 244.43135999999996 59.17972633552014" height="59.17972633552014" width="244.43135999999996"><g><svg viewBox="0 0 244.43135999999996 59.17972633552014" height="59.17972633552014" width="244.43135999999996"><g id="textblocktransform"><svg viewBox="0 0 244.43135999999996 59.17972633552014" height="59.17972633552014" width="244.43135999999996" id="textblock"><g><svg viewBox="0 0 244.43135999999996 59.17972633552014" height="59.17972633552014" width="244.43135999999996"><g transform="matrix(1,0,0,1,0,0)"><svg width="244.43135999999996" viewBox="1.9 -38 160.04 38.75" height="59.17972633552014" data-palette-color="#e62d93"><path d="M8.7 0.7L8.7 0.7Q6.4 0.7 4.89-0.33 3.38-1.35 2.64-3.05 1.9-4.75 1.9-6.8L1.9-6.8Q1.9-7.95 2.49-9.33 3.08-10.7 4.58-11.95 6.08-13.2 8.8-14 11.53-14.8 15.8-14.8L15.8-14.8 15.8-15.95Q15.8-17.8 14.91-19.03 14.03-20.25 11.35-20.25L11.35-20.25Q9.4-20.25 7.54-19.59 5.68-18.93 4.8-17.95L4.8-17.95 2.8-22.75Q4.3-23.78 6.81-24.64 9.33-25.5 12.4-25.5L12.4-25.5Q16.1-25.5 18.15-24.38 20.2-23.25 21.03-21.19 21.85-19.13 21.85-16.35L21.85-16.35 21.85 0 16.5 0 16.05-3.55Q13.45 0.7 8.7 0.7ZM11.35-4.1L11.35-4.1Q12.48-4.1 13.76-5.01 15.05-5.93 15.8-7.35L15.8-7.35 15.8-10.9Q15.55-10.95 15.26-10.95 14.98-10.95 14.6-10.95L14.6-10.95Q13.23-10.95 11.71-10.64 10.2-10.33 9.15-9.55 8.1-8.78 8.1-7.4L8.1-7.4Q8.1-5.6 8.9-4.85 9.7-4.1 11.35-4.1ZM34.75 0L28.65 0 28.65-38 34.75-38 34.75 0ZM54.65 0.7L54.65 0.7Q51.95 0.7 50.23-1 48.52-2.7 47.95-4.95L47.95-4.95 47.95 0 42.45 0 42.45-38 48.45-38 48.45-24.9 47.95-20.6Q48.34-22.3 49.53-23.4 50.72-24.5 52.25-25.03 53.77-25.55 55.2-25.55L55.2-25.55Q59.84-25.55 62.22-22.26 64.59-18.98 64.59-12.55L64.59-12.55Q64.59-8.08 63.26-5.14 61.92-2.2 59.66-0.75 57.4 0.7 54.65 0.7ZM53.2-4.25L53.2-4.25Q54.42-4.25 55.53-5.06 56.65-5.88 57.34-7.7 58.05-9.53 58.05-12.55L58.05-12.55Q58.05-16.75 56.63-18.6 55.22-20.45 53.3-20.45L53.3-20.45Q50.97-20.45 49.76-18.06 48.55-15.68 48.55-12.15L48.55-12.15Q48.55-8.63 49.78-6.44 51.02-4.25 53.2-4.25ZM80.54 0.65L80.54 0.65Q76.34 0.65 73.77-1.11 71.19-2.88 70.02-5.79 68.84-8.7 68.84-12.15L68.84-12.15Q68.84-15.78 70.18-18.81 71.52-21.85 74.11-23.68 76.69-25.5 80.44-25.5L80.44-25.5Q86.04-25.5 88.27-22.26 90.49-19.03 90.49-13.1L90.49-13.1Q90.49-12.58 90.47-11.78 90.44-10.98 90.39-10.4L90.39-10.4 75.39-10.4Q75.54-7.45 77.06-5.78 78.57-4.1 81.59-4.1L81.59-4.1Q83.14-4.1 84.92-4.79 86.69-5.48 87.54-6.45L87.54-6.45 89.54-1.7Q88.54-1.03 86.38-0.19 84.22 0.65 80.54 0.65ZM75.34-14.3L75.34-14.3 84.14-14.3Q84.14-16.93 83.68-18.31 83.22-19.7 82.42-20.23 81.62-20.75 80.59-20.75L80.59-20.75Q78.04-20.75 76.77-18.86 75.49-16.98 75.34-14.3ZM102.79 0L96.39 0 96.39-24.9 102.19-24.9 102.32-21.63Q103.29-23.13 105.04-24.31 106.79-25.5 109.64-25.5L109.64-25.5Q113.44-25.5 115.29-23.1 117.14-20.7 117.14-16.45L117.14-16.45 117.14 0 110.74 0 110.74-15.9Q110.74-17.98 109.87-19.26 108.99-20.55 107.19-20.55L107.19-20.55Q105.44-20.55 104.12-19.26 102.79-17.98 102.79-15.9L102.79-15.9 102.79 0ZM132.54 0.75L132.54 0.75Q128.31 0.75 126.83-1.45 125.34-3.65 125.34-8.1L125.34-8.1 125.34-19.65 122.09-19.65 122.09-24.9 125.59-24.9 125.94-30.15 131.39-32.5 131.39-24.9 137.54-24.9 137.54-19.65 131.39-19.65 131.39-8.25Q131.39-6.08 132-5.24 132.61-4.4 133.69-4.4L133.69-4.4Q134.79-4.4 136.01-4.98 137.24-5.55 137.94-6.15L137.94-6.15 139.14-1.1Q138.36-0.55 137.13-0.14 135.89 0.28 134.63 0.51 133.36 0.75 132.54 0.75ZM148.79 0.7L148.79 0.7Q146.49 0.7 144.97-0.33 143.46-1.35 142.72-3.05 141.99-4.75 141.99-6.8L141.99-6.8Q141.99-7.95 142.57-9.33 143.16-10.7 144.66-11.95 146.16-13.2 148.89-14 151.61-14.8 155.89-14.8L155.89-14.8 155.89-15.95Q155.89-17.8 155-19.03 154.11-20.25 151.44-20.25L151.44-20.25Q149.49-20.25 147.62-19.59 145.76-18.93 144.89-17.95L144.89-17.95 142.89-22.75Q144.39-23.78 146.9-24.64 149.41-25.5 152.49-25.5L152.49-25.5Q156.19-25.5 158.24-24.38 160.29-23.25 161.11-21.19 161.94-19.13 161.94-16.35L161.94-16.35 161.94 0 156.59 0 156.14-3.55Q153.54 0.7 148.79 0.7ZM151.44-4.1L151.44-4.1Q152.56-4.1 153.85-5.01 155.14-5.93 155.89-7.35L155.89-7.35 155.89-10.9Q155.64-10.95 155.35-10.95 155.06-10.95 154.69-10.95L154.69-10.95Q153.31-10.95 151.8-10.64 150.29-10.33 149.24-9.55 148.19-8.78 148.19-7.4L148.19-7.4Q148.19-5.6 148.99-4.85 149.79-4.1 151.44-4.1Z" opacity="1" transform="matrix(1,0,0,1,0,0)" fill="#e62d93" class="wordmark-text-0" data-fill-palette-color="primary" id="text-0"></path></svg></g></svg></g></svg></g></svg></g></svg></g></svg></g></svg></g><g><path d="M0 123.6c0-68.262 55.338-123.6 123.6-123.6 55.529 0 102.506 36.618 118.099 87.025l-2.797 0c-15.501-48.91-61.262-84.356-115.302-84.357-66.789 0-120.932 54.143-120.932 120.932 0 66.789 54.143 120.932 120.932 120.932 54.04 0 99.801-35.446 115.302-84.357l2.797 0c-15.593 50.406-62.57 87.025-118.099 87.025-68.262 0-123.6-55.338-123.6-123.6z" fill="#000000" stroke="transparent" data-fill-palette-color="tertiary"></path></g></svg></g><defs></defs></svg><rect width="395.52" height="247.2" fill="none" stroke="none" visibility="hidden"></rect></g></svg></g></svg>